<?xml version="1.0" encoding="utf-8"?>
<!-- Generator: Adobe Illustrator 21.1.0, SVG Export Plug-In . SVG Version: 6.00 Build 0)  -->
<svg version="1.1" id="レイヤー_1" xmlns="http://www.w3.org/2000/svg" xmlns:xlink="http://www.w3.org/1999/xlink" x="0px"
	 y="0px" viewBox="0 0 317 40" style="enable-background:new 0 0 317 40;" xml:space="preserve">
<style type="text/css">
	.st0{fill:#231815;}
	.st1{fill:#006AB6;}
</style>
<g>
	<g>
		<path class="st0" d="M37.2,26.2h3v3.4H43v-3.4h3v9.7h-3v-3.9h-2.8v3.9h-3V26.2z"/>
		<path class="st0" d="M50.2,26.2h2.9l3.5,9.7h-3.1l-0.4-1.4h-3.1l-0.4,1.4h-3L50.2,26.2z M52.6,32.5l-0.9-3h0l-0.9,3H52.6z"/>
		<path class="st0" d="M57.4,26.2h4.3l1.4,5.7h0l1.4-5.7h4.3v9.7h-2.8v-6.2h0l-1.7,6.2h-2.2l-1.7-6.2h0v6.2h-2.8V26.2z"/>
		<path class="st0" d="M72.9,26.2h2.9l3.5,9.7h-3.1l-0.4-1.4h-3.1l-0.4,1.4h-3L72.9,26.2z M75.3,32.5l-0.9-3h0l-0.9,3H75.3z"/>
		<path class="st0" d="M80,26.2h4.3l1.4,5.7h0l1.4-5.7h4.3v9.7h-2.8v-6.2h0l-1.7,6.2h-2.2l-1.7-6.2h0v6.2H80V26.2z"/>
		<path class="st0" d="M95.6,26.2h2.9l3.5,9.7H99l-0.4-1.4h-3.1L95,35.9h-3L95.6,26.2z M98,32.5l-0.9-3h0l-0.9,3H98z"/>
		<path class="st0" d="M105,28.7h-2.7v-2.5h8.4v2.5H108v7.2h-3V28.7z"/>
		<path class="st0" d="M114.2,32.7c0,0.2,0,0.5,0.1,0.6c0.2,0.6,0.9,0.7,1.4,0.7c0.5,0,1.2-0.2,1.2-0.9c0-0.5-0.4-0.6-2.1-1.1
			c-1.5-0.4-3.3-0.9-3.3-2.8c0-2.2,1.9-3.2,3.9-3.2c2.1,0,4,0.8,4.1,3.2h-2.8c0.1-0.4-0.1-0.6-0.4-0.8c-0.2-0.2-0.6-0.2-0.9-0.2
			c-0.4,0-1.1,0.1-1.1,0.7c0.1,0.7,1.4,0.8,2.8,1.2c1.4,0.4,2.7,1,2.7,2.8c0,2.5-2.3,3.3-4.5,3.3c-1.1,0-4.2-0.4-4.3-3.5H114.2z"/>
		<path class="st0" d="M129.7,32.2c0,2.7-1.5,4-4.4,4s-4.4-1.3-4.4-4v-6h3v5.3c0,1,0,2.2,1.5,2.2c1.4,0,1.4-1.2,1.4-2.2v-5.3h3V32.2
			z"/>
		<path class="st0" d="M135.2,26.2l2.2,8.5h0l2.4-8.5h1.2l2.4,8.5h0l2.2-8.5h0.9l-2.7,9.7h-1l-2.5-8.7h0l-2.5,8.7h-1l-2.7-9.7H135.2
			z"/>
		<path class="st0" d="M151.5,26.2l3.8,9.7h-1l-1.2-3h-4.4l-1.2,3h-1l3.9-9.7H151.5z M152.8,32.1l-1.9-5l-1.9,5H152.8z"/>
		<path class="st0" d="M162.8,26.2V27h-3.4v8.9h-0.9V27h-3.4v-0.8H162.8z"/>
		<path class="st0" d="M170.4,26.2V27h-5.8v3.5h5.4v0.8h-5.4v3.8h5.9v0.8h-6.8v-9.7H170.4z"/>
		<path class="st0" d="M176.3,26.2c0.4,0,0.8,0,1.1,0.1c0.4,0.1,0.7,0.3,0.9,0.5c0.3,0.2,0.5,0.5,0.6,0.8c0.2,0.3,0.2,0.7,0.2,1.1
			c0,0.6-0.2,1.2-0.5,1.6c-0.3,0.5-0.8,0.7-1.4,0.9v0c0.3,0,0.6,0.1,0.8,0.3c0.2,0.1,0.4,0.3,0.5,0.5c0.1,0.2,0.2,0.4,0.3,0.7
			c0.1,0.2,0.1,0.5,0.1,0.8c0,0.2,0,0.4,0,0.6c0,0.2,0,0.5,0.1,0.7c0,0.2,0.1,0.5,0.1,0.7c0.1,0.2,0.1,0.4,0.2,0.5h-1
			c-0.1-0.1-0.1-0.2-0.1-0.3c0-0.1-0.1-0.3-0.1-0.4c0-0.1,0-0.3,0-0.4s0-0.3,0-0.4c0-0.3,0-0.7-0.1-1c0-0.3-0.1-0.6-0.3-0.9
			c-0.1-0.3-0.3-0.5-0.6-0.6c-0.2-0.2-0.6-0.2-1-0.2h-3.5v4.3h-0.9v-9.7H176.3z M176.2,30.8c0.3,0,0.5,0,0.8-0.1
			c0.3-0.1,0.5-0.2,0.7-0.4c0.2-0.2,0.3-0.4,0.5-0.6c0.1-0.2,0.2-0.5,0.2-0.8c0-0.6-0.2-1.1-0.5-1.4c-0.3-0.3-0.9-0.5-1.6-0.5h-3.5
			v3.8H176.2z"/>
		<path class="st0" d="M185.3,34c0.2,0.3,0.4,0.6,0.7,0.8c0.3,0.2,0.6,0.3,1,0.4c0.4,0.1,0.8,0.1,1.3,0.1c0.3,0,0.5,0,0.8-0.1
			c0.3-0.1,0.6-0.2,0.8-0.3c0.3-0.2,0.5-0.4,0.6-0.6c0.2-0.2,0.3-0.6,0.3-0.9c0-0.3-0.1-0.5-0.2-0.7c-0.1-0.2-0.3-0.4-0.5-0.5
			c-0.2-0.1-0.4-0.2-0.6-0.3c-0.2-0.1-0.5-0.2-0.7-0.2l-2.2-0.5c-0.3-0.1-0.6-0.2-0.8-0.3c-0.3-0.1-0.5-0.3-0.7-0.4
			s-0.4-0.4-0.5-0.7c-0.1-0.3-0.2-0.6-0.2-1c0-0.2,0-0.5,0.1-0.8c0.1-0.3,0.3-0.6,0.5-0.9c0.2-0.3,0.6-0.5,1-0.7s1-0.3,1.7-0.3
			c0.5,0,0.9,0.1,1.4,0.2c0.4,0.1,0.8,0.3,1.1,0.6c0.3,0.3,0.6,0.6,0.8,0.9c0.2,0.4,0.3,0.8,0.3,1.3h-0.9c0-0.4-0.1-0.7-0.3-1
			c-0.1-0.3-0.3-0.5-0.6-0.7c-0.2-0.2-0.5-0.3-0.8-0.4c-0.3-0.1-0.6-0.1-1-0.1c-0.3,0-0.6,0-0.9,0.1c-0.3,0.1-0.6,0.2-0.8,0.3
			c-0.2,0.2-0.4,0.3-0.5,0.6c-0.1,0.2-0.2,0.5-0.2,0.9c0,0.2,0,0.4,0.1,0.6c0.1,0.2,0.2,0.3,0.3,0.4c0.1,0.1,0.3,0.2,0.5,0.3
			c0.2,0.1,0.4,0.1,0.6,0.2l2.4,0.6c0.3,0.1,0.7,0.2,1,0.3c0.3,0.1,0.6,0.3,0.8,0.5c0.2,0.2,0.4,0.4,0.5,0.7c0.1,0.3,0.2,0.6,0.2,1
			c0,0.1,0,0.3,0,0.4c0,0.2-0.1,0.4-0.2,0.6c-0.1,0.2-0.2,0.4-0.4,0.6c-0.2,0.2-0.4,0.4-0.7,0.6c-0.3,0.2-0.6,0.3-1,0.4
			c-0.4,0.1-0.9,0.2-1.5,0.2c-0.6,0-1.1-0.1-1.6-0.2c-0.5-0.1-0.9-0.3-1.3-0.6c-0.3-0.3-0.6-0.6-0.8-1c-0.2-0.4-0.3-0.9-0.2-1.5h0.9
			C185.1,33.2,185.2,33.7,185.3,34z"/>
		<path class="st0" d="M192.1,26.2h1.1l3.2,4.9l3.2-4.9h1.1l-3.8,5.7v4H196v-4L192.1,26.2z"/>
		<path class="st0" d="M202.9,26.2l3.2,8.5l3.3-8.5h1.4v9.7h-0.9v-8.4h0l-3.3,8.4h-0.9l-3.2-8.4h0v8.4h-0.9v-9.7H202.9z"/>
		<path class="st0" d="M217.1,26.2c0.4,0,0.8,0.1,1.2,0.2s0.7,0.3,0.9,0.5c0.3,0.2,0.4,0.5,0.6,0.9c0.1,0.3,0.2,0.7,0.2,1.2
			c0,0.4-0.1,0.8-0.2,1.2c-0.1,0.3-0.3,0.6-0.6,0.9c-0.3,0.2-0.6,0.4-0.9,0.5s-0.7,0.2-1.2,0.2h-3.4v4.2h-0.9v-9.7H217.1z M216.8,31
			c0.6,0,1.2-0.2,1.6-0.5c0.4-0.3,0.6-0.8,0.6-1.5c0-0.7-0.2-1.2-0.6-1.5c-0.4-0.3-0.9-0.5-1.6-0.5h-3.2v4H216.8z"/>
		<path class="st0" d="M222.2,26.2v4.2h5.8v-4.2h0.9v9.7H228v-4.7h-5.8v4.7h-0.9v-9.7H222.2z"/>
		<path class="st0" d="M230.7,29.2c0.2-0.6,0.5-1.1,0.9-1.6c0.4-0.5,0.9-0.8,1.4-1.1s1.2-0.4,2-0.4c0.8,0,1.4,0.1,2,0.4
			c0.6,0.3,1,0.6,1.4,1.1c0.4,0.5,0.7,1,0.9,1.6c0.2,0.6,0.3,1.2,0.3,1.9c0,0.7-0.1,1.3-0.3,1.9c-0.2,0.6-0.5,1.1-0.9,1.6
			c-0.4,0.5-0.9,0.8-1.4,1.1c-0.6,0.3-1.2,0.4-2,0.4c-0.8,0-1.4-0.1-2-0.4c-0.6-0.3-1.1-0.6-1.4-1.1c-0.4-0.5-0.7-1-0.9-1.6
			c-0.2-0.6-0.3-1.2-0.3-1.9C230.4,30.4,230.5,29.8,230.7,29.2z M231.5,32.6c0.1,0.5,0.4,1,0.7,1.4c0.3,0.4,0.7,0.7,1.1,1
			c0.5,0.2,1,0.4,1.7,0.4c0.6,0,1.2-0.1,1.7-0.4c0.5-0.2,0.8-0.6,1.1-1s0.5-0.9,0.7-1.4c0.1-0.5,0.2-1,0.2-1.6
			c0-0.5-0.1-1.1-0.2-1.6c-0.1-0.5-0.4-1-0.7-1.4s-0.7-0.7-1.1-1c-0.5-0.2-1-0.4-1.7-0.4c-0.6,0-1.2,0.1-1.7,0.4
			c-0.5,0.2-0.8,0.6-1.1,1c-0.3,0.4-0.5,0.9-0.7,1.4c-0.1,0.5-0.2,1-0.2,1.6C231.3,31.6,231.4,32.1,231.5,32.6z"/>
		<path class="st0" d="M242,26.2l5.7,8.2h0v-8.2h0.9v9.7h-1l-5.7-8.2h0v8.2H241v-9.7H242z"/>
		<path class="st0" d="M249.5,26.2h1.1l3.2,4.9l3.2-4.9h1.1l-3.8,5.7v4h-0.9v-4L249.5,26.2z"/>
	</g>
	<g>
		<path class="st0" d="M37.3,20.6c1.8-2.3,2.9-5.3,3.1-5.7l1.2,0.6c-0.6,1.8-1.8,4.4-3.3,6.3L37.3,20.6z M40.2,13.5
			c-0.7-0.7-2-1.4-2.8-1.8l0.7-1.2c0.2,0.1,1.8,0.7,3,1.7L40.2,13.5z M40.9,8.9c-1.1-1-2.1-1.5-2.9-1.9l0.8-1.2
			c0.9,0.3,2.3,1.1,3,1.8L40.9,8.9z M40.9,20.7c1.6-0.9,2.8-1.8,3.9-3.4l1.2,0.7c-1.4,2.3-3.4,3.5-4.1,3.9L40.9,20.7z M53.3,11.4
			h-2.5v4h2.9v1.4H41.8v-1.4h1.5V6.7c3.7,0,6.8-0.2,9.1-0.9L53,7.1c-3.2,0.8-7.2,0.8-8.2,0.8v2.1h8.5V11.4z M49.4,11.4h-4.6v4h4.6
			V11.4z M50.5,17.3c0.7,1.1,1.8,2.4,3.3,3.4l-1,1.2c-1.4-1.1-2.6-2.4-3.6-3.9L50.5,17.3z"/>
		<path class="st0" d="M60.8,16.2c-0.3-0.4-1-1.3-1.7-2.7v8.3h-1.4v-8.7c-0.8,2.6-1.9,4.1-2.4,4.9l-0.7-1.6c2-2.4,2.9-5.6,3.1-6H55
			V9.1h2.7V5.8h1.4v3.3h2.3v1.3h-2.3v1.1c0.3,0.5,1,1.9,2.5,3.5L60.8,16.2z M60.8,12.7c1.3-1.6,2.2-3.2,2.8-6.8L65,6.1
			c-0.4,2.7-1.5,5.6-3,7.6L60.8,12.7z M68.3,15.1c1.3,2,2.3,4.6,2.8,6.2l-1.4,0.6c-0.1-0.4-0.2-0.7-0.4-1.4c-2.1,0.4-6.3,0.7-8,0.9
			L61,19.9c0.7,0,1,0,1.3-0.1c0.8-1.9,1.8-5.1,2.4-8l1.4,0.3c-0.5,2-1.2,4.7-2.4,7.6c1.9-0.1,3.2-0.3,5.1-0.5
			c-0.7-1.8-1.4-3-1.7-3.5L68.3,15.1z M68.4,5.9c0.6,3.4,1.6,5.3,2.8,6.9l-1.1,1.1c-1.8-2-2.8-5.5-3.1-7.8L68.4,5.9z"/>
		<path class="st0" d="M86,9v1.2c0,5.2-2.1,10.2-10.7,10.9l-0.5-1.5c8.6-0.8,9.5-5.4,9.5-8.7v-0.3h-9.6v4.2h-1.5V9h5.6V6.3h1.6V9H86
			z"/>
		<path class="st0" d="M88.8,13.1v-1.3h6.6V9.4h1.4v2.4h3.4v1.3h-3.4l0,6.1c0,2-1.3,2-2.2,2c-0.6,0-1.2,0-1.9-0.1l-0.2-1.4
			c0.8,0.1,2,0.2,2.1,0.2c0.6,0,0.7-0.1,0.7-0.8l0-4.5c-1.1,1.6-3.2,3.8-6.2,5.5L88.3,19c2.4-1.1,4.9-3.2,6.8-5.8H88.8z"/>
		<path class="st0" d="M117.5,13v1.6h-14.9V13H117.5z"/>
		<path class="st0" d="M119.9,12.6c2.1-1.3,3.6-2.9,4.6-5.2h9c-0.3,2.8-1.2,11.1-11.6,13.8l-0.7-1.4c2.8-0.7,5.5-2,7.5-4.1
			c-1.4-1.2-3-2.3-5.5-3.6c-0.5,0.5-1,1-2.2,1.7L119.9,12.6z M125.5,8.8c-0.7,1.2-1,1.6-1.5,2.2c1.8,0.9,3.8,2,5.5,3.4
			c0.9-1.4,1.7-2.9,2.1-5.6H125.5z"/>
		<path class="st0" d="M151.3,13v1.6h-14.9V13H151.3z"/>
		<path class="st0" d="M158.6,14.3c-2-1.2-3.5-1.7-4.9-2.1l0.6-1.4c2,0.5,3.2,1,5,2L158.6,14.3z M154.6,19c6.8-0.7,9.8-3.2,11.9-9.8
			l1.3,1c-2.5,7.2-5.7,9.5-12.9,10.5L154.6,19z M160,10.3c-1.9-1.1-3.6-1.6-5-2l0.6-1.3c2,0.5,3.3,1,5.1,1.9L160,10.3z"/>
		<path class="st0" d="M175.3,11.4c-1-0.7-2.8-1.7-5.3-2.5l0.8-1.4c3.1,0.9,5,2.1,5.4,2.4L175.3,11.4z M170.3,19
			c8.8-0.5,11.3-6.6,12.5-10.5l1.4,1c-0.8,2.5-3.6,10.5-13.6,11.2L170.3,19z"/>
		<path class="st0" d="M199.4,7.6c-0.4,5.5-2,11.4-11,13.3l-0.6-1.5c7-1.4,9.3-5,9.9-10.3h-11.5V7.6H199.4z"/>
		<path class="st0" d="M202,13.1v-1.3h6.6V9.4h1.4v2.4h3.4v1.3H210l0,6.1c0,2-1.3,2-2.2,2c-0.6,0-1.2,0-1.9-0.1l-0.2-1.4
			c0.8,0.1,2,0.2,2.1,0.2c0.6,0,0.7-0.1,0.7-0.8l0-4.5c-1.1,1.6-3.2,3.8-6.2,5.5l-0.8-1.2c2.4-1.1,4.9-3.2,6.8-5.8H202z"/>
		<path class="st0" d="M230.4,17.8v1.6h-14.5v-1.6H230.4z M229,8.3v1.6h-11.7V8.3H229z"/>
		<path class="st0" d="M247.8,13v1.6h-14.9V13H247.8z"/>
		<path class="st0" d="M255.1,16.1c-0.8-1.1-1.1-1.6-1.5-2.7v8.4h-1.3v-8.6c-0.2,0.5-0.8,2.6-2.2,4.7l-0.6-1.7
			c1.5-1.8,2.3-4.4,2.7-5.8h-2.4V9.2h2.5V5.8h1.3v3.3h2.1v1.4h-2.1v1.1c0.3,0.8,1.5,2.3,2.4,3.3L255.1,16.1z M261.5,21.9h-1.4v-6.3
			c-1.1,2.1-2.3,3.4-4.2,5l-1-1.2c2.5-1.8,3.9-3.7,4.8-5.2h-4v-1.3h4.5V10h-2.2c-0.5,1.2-0.9,1.7-1.2,2.2l-1.3-0.8
			c0.9-1.1,1.6-2.3,2.1-5.1l1.4,0.2c-0.1,0.6-0.2,1.1-0.5,2.2h1.7V5.8h1.4v2.9h3.8V10h-3.8v2.7h4.2V14H262c1.3,2.6,2.5,3.9,4,5.1
			l-0.8,1.5c-2-1.7-3-3.6-3.7-5.1V21.9z"/>
		<path class="st0" d="M276.2,19.7c-2.5,0.6-5.7,1.1-9,1.5l-0.2-1.4c0.7-0.1,1.6-0.1,3.8-0.5v-5.4h-3.4v-1.4h8.3v1.4h-3.4v5.2
			c2.5-0.4,3.2-0.6,3.9-0.7L276.2,19.7z M277.5,5.8c0,0.6,0,1.3,0,2.9h5.5V10h-5.4c0.2,3.2,0.4,6.5,2.2,9.2c0.2,0.3,0.7,1,1.1,1
			c0.5,0,0.9-1.2,1-2.9l1.3,0.6c-0.2,1.3-0.5,3.9-2.1,3.9c-1.9,0-3.3-2.9-3.8-4.2c-0.9-2.7-1-4.1-1.2-7.6H267V8.7h9.1
			c0-0.8-0.1-1.9-0.1-2.9H277.5z M281.3,8.6c-0.7-0.6-1.4-1.1-2.7-1.8l0.8-1c1.3,0.7,1.8,1,2.8,1.8L281.3,8.6z"/>
		<path class="st0" d="M296.9,11.9h-9.2v-1c-1.5,1-2.5,1.4-3.1,1.6l-0.7-1.4c5.2-2,7.1-4.8,7.6-5.5h1.5c1.8,2.4,4.6,4.5,7.6,5.6
			l-0.8,1.4c-0.8-0.3-1.7-0.8-3-1.6V11.9z M295.4,16c1.9,1.8,2.9,3,4.2,5.1l-1.2,0.8c-0.3-0.5-0.5-0.8-0.8-1.3
			c-2.9,0.4-10,0.7-12.6,0.7l-0.2-1.4h2.4c1.1-1.9,1.7-3.5,2.1-4.5h-4.7v-1.3H300v1.3h-9c-0.4,1-1.1,2.5-2.2,4.5
			c0.4,0,2.4-0.1,2.7-0.1c2.1-0.1,3.9-0.2,5.2-0.4c-0.2-0.2-1-1.3-2.4-2.7L295.4,16z M296.4,10.6c-2.4-1.7-3.4-3-4.1-3.7
			c-1.1,1.5-2.6,2.7-4,3.7H296.4z"/>
		<path class="st0" d="M305.8,21.9h-1.4v-7c-1.1,1-1.9,1.5-2.4,1.8l-0.6-1.4c2.9-1.7,4.5-4,5.1-5.4h-4.9V8.6h2.7V5.8h1.4v2.8h2.2
			v1.3c-0.2,0.4-0.6,1.5-1.9,3.1c0.9,1.1,1.5,1.6,2.5,2.3l-0.8,1.3c-0.9-0.7-1.1-1-2.1-2.1V21.9z M313.5,5.8v5h3.8v1.4h-3.8v7.6h4.2
			v1.4h-10.1v-1.4h4.4v-7.6h-3.6v-1.4h3.6v-5H313.5z"/>
	</g>
	<path class="st1" d="M13.3,40.5c-7.5,0-13.6-6.1-13.6-13.6c0-0.1,0-0.3,0-0.4c0.1-4.9,2.3-10.8,6.5-17.4c3.1-4.9,6.1-8.3,6.3-8.4
		c0.4-0.4,1.1-0.5,1.5-0.1c0.4,0.4,0.5,1.1,0.1,1.5c0,0-3.1,3.4-6.1,8.1c-3.9,6.2-6.1,11.8-6.2,16.3c0,0.1,0,0.2,0,0.4
		c0,6.3,5.1,11.5,11.5,11.5s11.5-5.1,11.5-11.5c0-0.1,0-0.2,0-0.4c-0.1-3.7-1.5-8.1-4.2-13v13.5c0,2.7-2.1,5.5-5.4,7.1
		c-2,0.9-4.1,1.3-5.9,1c-2-0.3-3.5-1.3-4.2-2.8c-0.7-1.5-0.5-3.3,0.5-5.1c1-1.6,2.6-3,4.5-3.9c2.2-1,4.5-1.4,6.5-0.9
		c0.6,0.1,1,0.7,0.8,1.3c-0.1,0.6-0.7,1-1.3,0.8c-1.5-0.3-3.3-0.1-5.1,0.8c-1.6,0.7-2.8,1.8-3.6,3.1c-0.7,1.1-0.8,2.2-0.4,3
		c0.4,0.8,1.3,1.4,2.6,1.6c1.4,0.2,3.1-0.1,4.6-0.8c2.5-1.2,4.2-3.3,4.2-5.1l0-21.2l2,3.1c4.3,6.6,6.5,12.5,6.6,17.5
		c0,0.1,0,0.3,0,0.4C26.9,34.4,20.8,40.5,13.3,40.5z"/>
</g>
</svg>
